<?xml version="1.0" encoding="utf-8"?>
<!-- Generator: Adobe Illustrator 16.0.0, SVG Export Plug-In . SVG Version: 6.00 Build 0)  -->
<!DOCTYPE svg PUBLIC "-//W3C//DTD SVG 1.1//EN" "http://www.w3.org/Graphics/SVG/1.1/DTD/svg11.dtd">
<svg xmlns="http://www.w3.org/2000/svg" xmlns:xlink="http://www.w3.org/1999/xlink" version="1.1" id="Coffee_x5F_Bean" x="0px" y="0px" width="512" height="512" viewBox="0 0 144.083 144" enable-background="new 0 0 144.083 144" xml:space="preserve">
<path d="M90.426,53.615c-6.105-6.105-14.204-9.606-22.219-9.606c-6.685,0-12.815,2.449-17.262,6.896  c-10.137,10.137-8.921,27.848,2.711,39.481c6.104,6.104,14.203,9.605,22.219,9.605c6.685,0,12.815-2.449,17.262-6.896  C103.274,82.957,102.058,65.246,90.426,53.615z M57.899,86.143c-8.7-8.702-10.318-21.445-4.089-29.434  c0.027,0.171,0.054,0.352,0.081,0.543c0.265,1.813,0.627,4.296,3.228,6.896c2.601,2.602,5.084,2.964,6.896,3.229  c1.501,0.219,2.328,0.34,3.521,1.533s1.313,2.02,1.532,3.52c0.265,1.813,0.626,4.296,3.227,6.897  c2.602,2.601,5.085,2.964,6.898,3.229c1.5,0.219,2.327,0.34,3.521,1.535c1.195,1.194,1.316,2.021,1.535,3.522  c0.162,1.104,0.366,2.457,1.082,3.932c-2.765,1.584-5.999,2.447-9.457,2.447C69.44,93.991,62.887,91.13,57.899,86.143z   M90.271,87.294c-0.028-0.174-0.055-0.355-0.083-0.55c-0.266-1.813-0.629-4.297-3.229-6.897c-2.602-2.602-5.085-2.964-6.897-3.229  c-1.501-0.22-2.328-0.341-3.522-1.535c-1.193-1.193-1.313-2.02-1.532-3.52c-0.265-1.813-0.626-4.296-3.227-6.896  c-2.602-2.601-5.085-2.964-6.897-3.229c-1.501-0.219-2.327-0.339-3.521-1.533c-1.193-1.192-1.313-2.019-1.532-3.519  c-0.161-1.104-0.365-2.456-1.08-3.93c2.766-1.585,6-2.448,9.459-2.448c6.436,0,12.987,2.861,17.977,7.849  C94.885,66.56,96.503,79.305,90.271,87.294z"/>
</svg>
