<svg width="183" height="75" viewBox="0 0 183 75" fill="none" xmlns="http://www.w3.org/2000/svg">
<g id="coffee &#233;&#129;&#184;&#230;&#147;&#135;(&#230;&#169;&#171;)">
<g id="coffee &#233;&#129;&#184;&#230;&#147;&#135;(&#230;&#169;&#171;)_2">
<path id="?" d="M172.654 63.1C171.432 63.1 170.47 64.062 170.47 65.258C170.47 66.454 171.432 67.416 172.654 67.416C173.876 67.416 174.786 66.454 174.786 65.258C174.786 64.062 173.876 63.1 172.654 63.1ZM176.866 51.374C177.126 51.79 177.256 52.232 177.256 52.7C177.282 53.766 176.762 54.234 175.306 54.832L173.72 55.404C172.082 56.054 171.484 56.626 171.484 57.666C171.484 58.16 171.666 58.732 171.952 59.72L172.29 60.786H173.122L173.148 59.512C173.226 58.706 173.486 58.472 174.682 57.926L175.852 57.484C177.646 56.756 178.634 55.534 178.634 53.506C178.634 49.944 174.422 47.786 171.744 47.188C170.73 47.448 170.21 47.942 170.21 48.93C170.21 49.814 170.73 50.438 172.29 50.672L176.866 51.374Z" fill="#32312F"/>
<path id="&#233;&#129;&#184;" d="M14.846 58.302H17.29V60.954H14.846V58.302ZM20.54 60.954H19.994V58.302H22.906C23.27 58.302 23.53 58.172 23.582 57.886C22.698 57.106 21.268 55.988 21.268 55.988L20.046 57.574H19.994V55.858C20.514 55.754 20.67 55.572 20.696 55.26L17.29 54.948V57.574H14.846V55.858C15.366 55.754 15.522 55.546 15.548 55.26L12.142 54.948V57.574H9.542L9.75 58.302H12.142V60.954H8.398L8.606 61.708H24.18C24.544 61.708 24.804 61.578 24.882 61.292C23.816 60.356 22.048 59.082 22.048 59.082L20.54 60.954ZM16.848 62.436C18.902 63.502 20.28 64.854 20.904 65.894C23.062 68.156 28.106 63.216 17.004 62.124L16.848 62.436ZM8.71 66.362C11.102 65.842 13.442 64.802 14.768 63.762C15.548 63.84 15.964 63.684 16.094 63.372L12.532 61.786C11.83 63.138 10.192 65.01 8.528 66.076L8.71 66.362ZM21.19 48.058V50.268H19.214V48.058H21.19ZM20.722 54.714C23.66 54.714 24.57 54.402 24.57 53.518C24.57 53.128 24.336 52.946 23.686 52.66L23.556 52.634H23.322C23.166 52.686 22.906 52.738 22.75 52.764C22.594 52.764 22.36 52.79 22.204 52.79H21.034H19.786C19.292 52.79 19.214 52.712 19.214 52.374V50.996H21.19V51.672H21.58C22.36 51.672 23.53 51.178 23.556 50.97V48.344C23.972 48.24 24.284 48.058 24.414 47.902L22.048 46.134L20.956 47.304H19.552L16.796 46.212V52.764C16.796 54.22 17.082 54.714 19.058 54.714H20.722ZM11.466 50.268V48.058H13.572V50.268H11.466ZM15.86 52.868C14.3 53.024 12.74 53.154 11.466 53.258V50.996H13.572V51.75H13.962C14.716 51.75 15.834 51.23 15.86 51.048V48.318C16.302 48.24 16.614 48.058 16.744 47.902L14.43 46.16L13.338 47.304H11.83L8.996 46.186V52.634C8.996 53.128 8.918 53.336 8.372 53.674L9.438 56.014C9.646 55.91 9.88 55.78 10.062 55.546C12.48 54.662 14.716 53.752 15.886 53.258L15.86 52.868ZM1.872 46.498C2.756 47.512 3.64 49.124 3.796 50.554C6.396 52.452 8.892 47.382 2.106 46.342L1.872 46.498ZM7.176 57.028L5.772 58.406H4.628C5.356 57.132 6.266 55.364 6.838 54.22C7.384 54.168 7.878 54.038 8.112 53.804L5.668 51.646L4.472 52.842H1.092L1.326 53.596H4.498C3.926 54.896 3.016 56.716 2.314 57.964C1.924 58.094 1.56 58.276 1.326 58.458L3.536 59.992L4.394 59.16H5.928C5.642 61.058 4.966 63.268 4.108 64.88C3.276 65.27 1.716 66.44 0.65 67.038L2.73 69.95C2.912 69.82 2.99 69.664 2.912 69.43C3.406 68.156 3.926 66.856 4.316 66.076C4.524 65.608 4.81 65.53 5.2 66.024C7.384 68.754 9.646 69.664 15.522 69.664H23.166C23.322 68.494 24.024 67.376 25.272 67.116V66.83C22.178 66.986 19.682 67.012 16.562 67.012C10.712 67.012 7.54 66.7 5.512 65.088C5.33 64.958 5.2 64.88 5.044 64.828C6.734 63.242 8.008 61.214 8.632 59.342C9.178 59.29 9.412 59.212 9.594 59.004L7.176 57.028Z" fill="#32312F"/>
<path id="&#228;&#186;&#134;" d="M77.086 45.602L75.24 47.344H58.678L58.912 48.098H74.928C73.706 49.502 71.86 51.374 70.118 52.804L67.414 52.57V65.258C67.414 65.648 67.258 65.83 66.764 65.83C66.01 65.83 61.928 65.57 61.928 65.57V65.908C63.748 66.194 64.528 66.532 65.126 67.052C65.724 67.546 65.88 68.248 66.01 69.262C70.066 68.898 70.638 67.676 70.638 65.466V53.636C71.236 53.532 71.47 53.324 71.548 52.934L71.288 52.908C74.018 51.66 76.878 49.996 78.958 48.618C79.556 48.566 79.842 48.514 80.076 48.28L77.086 45.602Z" fill="#32312F"/>
<path id="&#229;&#129;&#154;" d="M88.238 44.9C87.536 49.762 86.054 54.91 84.442 58.29L84.78 58.498C85.56 57.718 86.262 56.834 86.938 55.846V69.314H87.432C88.498 69.314 89.668 68.716 89.694 68.534V53.246C90.188 53.168 90.422 52.986 90.526 52.752L89.018 52.206C89.85 50.49 90.526 48.618 91.124 46.642C91.722 46.642 92.034 46.434 92.138 46.096L88.238 44.9ZM104.696 51.192C104.592 54.104 104.254 56.886 103.5 59.486C102.72 57.77 102.148 55.82 101.784 53.688C102.226 52.908 102.616 52.076 102.98 51.192H104.696ZM94.01 64.504V57.874H96.87V64.504H94.01ZM108.908 51.192C109.272 51.192 109.558 51.062 109.61 50.776C108.648 49.788 106.958 48.28 106.958 48.28L105.502 50.464H103.266C103.76 49.19 104.176 47.838 104.514 46.408C105.086 46.382 105.398 46.122 105.502 45.81L101.446 44.926C101.342 46.902 101.082 48.904 100.718 50.802C99.912 50.022 98.976 49.164 98.976 49.164L97.65 51.114H96.896V46.044C97.494 45.94 97.702 45.706 97.754 45.368L94.01 45.03V51.114H90.344L90.552 51.842H94.01V57.12L91.41 56.028V67.806H91.826C92.918 67.806 94.01 67.234 94.01 66.948V65.258H96.87V66.87H97.39C98.508 66.87 99.496 66.272 99.522 66.116V58.342C99.938 58.29 100.276 58.108 100.458 57.9L98.326 55.898L97.182 57.172H96.896V51.842H100.51C100.146 53.636 99.678 55.274 99.158 56.652L99.496 56.834C100.172 56.106 100.796 55.3 101.368 54.39C101.602 57.12 101.992 59.668 102.616 61.93C101.498 64.582 99.808 67 97.286 69.054L97.494 69.314C100.094 68.014 102.07 66.376 103.526 64.504C104.332 66.376 105.372 67.962 106.776 69.236C107.166 67.78 108.05 66.922 109.532 66.558L109.636 66.298C107.764 65.232 106.23 63.854 105.034 62.164C106.75 58.966 107.452 55.248 107.764 51.192H108.908Z" fill="#32312F"/>
<path id="&#229;&#146;&#150;" d="M131.708 63.984V49.502H133.476V63.984H131.708ZM115.926 61.02V49.06H117.564V61.02H115.926ZM134.568 47.37L133.268 48.774H131.812L129.134 47.578V51.14L126.742 49.06L125.364 50.516H124.194V46.46C124.87 46.356 125.078 46.096 125.13 45.732L121.724 45.394V50.516H120.06V49.346C120.476 49.268 120.788 49.086 120.918 48.93L118.526 47.032L117.33 48.306H116.056L113.56 47.214V65.778H113.95C115.042 65.778 115.926 65.206 115.926 64.92V61.748H117.564V64.114H117.954C118.838 64.114 120.034 63.594 120.06 63.386V51.244H121.724V54.598C121.724 59.772 121.074 65.024 117.694 68.82L117.98 69.106C123.05 65.778 124.168 60.11 124.194 54.598V51.244H125.624C125.624 60.76 125.572 64.478 124.922 65.18C124.74 65.414 124.532 65.492 124.168 65.492C123.7 65.492 122.738 65.44 122.062 65.388V65.752C122.842 65.96 123.414 66.22 123.7 66.61C124.012 66.974 124.064 67.572 124.064 68.43C125.182 68.43 126.222 68.066 126.924 67.234C128.016 65.934 128.094 62.788 128.12 51.66C128.64 51.556 128.952 51.426 129.134 51.244V68.664H129.576C130.746 68.664 131.708 68.04 131.708 67.702V64.712H133.476V67.676H133.944C134.906 67.676 136.258 67.026 136.284 66.818V49.814C136.674 49.71 136.96 49.554 137.09 49.372L134.568 47.37Z" fill="#32312F"/>
<path id="&#229;&#149;&#161;" d="M144.342 60.798V49.41H146.188V60.798H144.342ZM152.714 51.152H149.386L149.62 51.88H152.714V56.274H149.62L149.828 57.002H152.714V59.316C152.714 59.706 152.714 60.07 152.688 60.46C151.154 60.85 149.776 61.214 148.918 61.396V49.748C149.334 49.67 149.646 49.462 149.776 49.306L147.228 47.304L145.954 48.682H144.446L141.742 47.512V66.232H142.184C143.328 66.232 144.342 65.608 144.342 65.27V61.526H146.188V64.49H146.656C147.566 64.49 148.892 63.866 148.918 63.684V62.462L149.724 64.646C150.01 64.542 150.27 64.256 150.348 63.918C151.18 63.216 151.908 62.566 152.558 61.968C152.09 65.53 150.556 68.052 147.306 70.106L147.54 70.366C153.468 68.26 155.522 64.698 155.574 59.316V47.486C156.224 47.382 156.406 47.122 156.458 46.758L152.714 46.394V51.152ZM161.554 61.916H160.358V57.002H164.076C164.44 57.002 164.7 56.872 164.778 56.586C163.92 55.624 162.438 54.194 162.438 54.194L161.086 56.274H160.358V51.932H164.414C164.778 51.932 165.038 51.802 165.116 51.542C164.232 50.554 162.698 49.072 162.698 49.072L161.32 51.204H160.358V47.538C161.06 47.434 161.268 47.148 161.32 46.784L157.394 46.394V70.314H157.966C159.084 70.314 160.358 69.612 160.358 69.274V62.644H164.83C165.194 62.644 165.48 62.514 165.532 62.228C164.648 61.214 162.984 59.654 162.984 59.654L161.554 61.916Z" fill="#32312F"/>
<path id="&#230;&#147;&#135;" d="M41.52 48.188V51.854H39.752V48.188H41.52ZM49.554 48.188V51.854H47.76V48.188H49.554ZM43.73 51.854V48.188H45.576V51.854H43.73ZM37.464 56.014C36.502 56.378 35.566 56.716 34.63 57.054V52.738H37.386V53.986H37.724C38.686 53.986 39.752 53.466 39.752 53.258V52.608H49.554V53.128H49.944C50.75 53.128 51.894 52.608 51.92 52.426V48.604C52.44 48.5 52.856 48.292 53.012 48.084L50.464 46.16L49.294 47.434H39.908L37.386 46.42V51.438C36.736 50.736 36.06 50.086 36.06 50.086L34.916 52.01H34.63V47.018C35.254 46.914 35.514 46.68 35.592 46.29L31.848 45.926V52.01H28.806L29.014 52.738H31.848V58.016C30.418 58.51 29.274 58.9 28.624 59.082L29.768 62.358C30.054 62.254 30.314 61.942 30.366 61.604C30.886 61.266 31.38 60.928 31.848 60.59V66.414C31.848 66.7 31.744 66.83 31.38 66.83C30.912 66.83 29.014 66.726 29.014 66.726V67.09C29.976 67.272 30.444 67.584 30.756 68.078C31.042 68.546 31.146 69.274 31.224 70.236C34.24 69.95 34.63 68.78 34.63 66.7V58.614C35.852 57.704 36.814 56.924 37.568 56.3L37.464 56.014ZM46.616 58.744C46.33 59.576 45.862 60.798 45.42 61.734H43.106C43.73 61.058 43.574 59.628 41.208 58.744H46.616ZM49.788 64.828H45.732V62.488H51.53C51.894 62.488 52.154 62.358 52.206 62.072C51.348 61.24 49.918 60.096 49.918 60.096L48.67 61.734H46.33C47.24 61.188 48.15 60.59 48.67 60.174C49.164 60.278 49.502 60.096 49.606 59.888L47.448 58.744H52.518C52.882 58.744 53.116 58.614 53.194 58.328C52.258 57.444 50.724 56.17 50.724 56.17L49.346 58.016H45.836V55.858H51.062C51.426 55.858 51.686 55.728 51.738 55.442C50.932 54.61 49.554 53.44 49.554 53.44L48.384 55.13H45.836V53.804C46.434 53.726 46.642 53.466 46.668 53.128L43.262 52.842V55.13H38.14L38.348 55.858H43.262V58.016H36.814L37.022 58.744H40.194C40.662 59.55 41.156 60.694 41.234 61.708L41.26 61.734H37.776L37.984 62.488H43.236V64.828H36.242L36.45 65.556H43.236V70.288H43.678C44.952 70.288 45.732 69.742 45.732 69.56V65.556H52.648C53.012 65.556 53.272 65.426 53.324 65.14C52.466 64.308 51.01 63.138 51.01 63.138L49.788 64.828Z" fill="#32312F"/>
<path id="&#228;&#187;&#128;" d="M56.24 7.874C55.096 13.022 52.834 18.222 50.572 21.446L50.858 21.654C52.08 20.77 53.198 19.756 54.264 18.586V32.288H54.836C56.058 32.288 57.306 31.638 57.358 31.404V16.168C57.852 16.064 58.06 15.908 58.164 15.674L56.838 15.18C57.852 13.568 58.788 11.774 59.568 9.798C60.166 9.824 60.504 9.59 60.608 9.252L56.24 7.874ZM70.592 17.286H68.2V9.486C68.902 9.382 69.084 9.122 69.136 8.732L64.976 8.342V17.286H58.736L58.944 18.04H64.976V32.08H65.6C66.796 32.08 68.2 31.3 68.2 30.988V18.04H74.726C75.09 18.04 75.376 17.91 75.454 17.624C74.284 16.532 72.334 14.946 72.334 14.946L70.592 17.286Z" fill="#32312F"/>
<path id="&#233;&#186;&#188;" d="M86.788 21.862H87.1C87.958 21.862 88.738 21.472 88.764 21.342V15.102H91.884C92.092 15.102 92.274 15.05 92.352 14.946L92.404 15.102H95.836V16.194L93.34 15.986C93.34 17.676 93.366 19.444 92.508 20.926L92.872 21.29C94.874 20.042 95.134 18.196 95.264 16.844C95.524 16.818 95.706 16.714 95.836 16.61V21.836H96.148C97.032 21.836 97.786 21.446 97.812 21.316V15.102H101.998C102.336 15.102 102.596 14.972 102.674 14.686C101.764 13.802 100.256 12.554 100.256 12.554L98.93 14.374H98.098V12.762C98.696 12.658 98.878 12.476 98.93 12.112L95.576 11.8V14.374H92.222C91.442 13.646 90.428 12.84 90.428 12.84L89.258 14.374H89.024V12.788C89.648 12.684 89.83 12.502 89.882 12.138L86.502 11.8V14.374H83.642L83.85 15.102H86.788V16.22L84.24 16.012C84.24 17.676 84.266 19.47 83.408 20.952L83.772 21.29C85.748 20.042 86.008 18.222 86.138 16.844C86.45 16.818 86.684 16.688 86.788 16.506V21.862ZM89.388 15.96V19.028C89.388 19.99 89.518 20.406 90.558 20.406H90.896C92.066 20.406 92.612 20.12 92.612 19.47C92.612 19.08 92.43 18.976 91.962 18.794H91.624C91.546 18.82 91.364 18.846 91.286 18.846C91.234 18.846 91.104 18.872 91.052 18.846H91.104H91.156C91.13 18.846 91.078 18.768 91.078 18.56V16.818C91.442 16.766 91.702 16.532 91.728 16.22L89.388 15.96ZM96.616 26.204C97.214 26.958 97.864 27.868 98.436 28.83C94.276 29.012 90.402 29.168 87.62 29.22C91.65 27.998 96.044 26.1 98.384 24.67C99.008 24.852 99.398 24.67 99.554 24.436L96.304 22.356C95.68 22.954 94.718 23.734 93.574 24.566C91.572 24.618 89.648 24.67 88.088 24.696C89.986 24.046 91.936 23.162 93.158 22.408C93.756 22.512 94.068 22.356 94.198 22.096L90.87 20.432C89.986 21.602 87.516 23.838 85.618 24.488C85.358 24.592 84.916 24.67 84.916 24.67L85.8 27.4C85.982 27.348 86.164 27.218 86.346 27.036C88.374 26.594 90.272 26.126 91.858 25.71C89.7 27.062 87.23 28.362 85.176 28.96C84.812 29.09 84.136 29.168 84.136 29.168L85.072 32.184C85.28 32.132 85.488 31.976 85.696 31.768C91.052 30.962 95.576 30.156 98.774 29.532C99.164 30.312 99.502 31.118 99.658 31.872C102.518 33.9 104.806 28.232 96.85 26.048L96.616 26.204ZM101.946 19.262H101.712C101.608 19.288 101.426 19.34 101.322 19.34H101.036H100.75H100.438C100.256 19.34 100.204 19.262 100.204 19.028V16.818C100.594 16.766 100.854 16.558 100.906 16.246L98.514 15.96V19.47C98.514 20.484 98.696 20.9 99.892 20.9H100.542C102.128 20.9 102.7 20.588 102.7 19.912C102.7 19.574 102.518 19.444 102.05 19.288L101.946 19.262ZM98.93 10.89H92.534C94.042 10.37 94.276 7.718 89.83 7.848L89.622 8.004C90.22 8.576 90.922 9.694 91.078 10.682C91.234 10.786 91.39 10.838 91.546 10.89H83.876L80.704 9.72V17.962C80.704 22.668 80.6 27.972 78.494 32.08L78.832 32.314C83.252 28.336 83.46 22.434 83.46 17.936V11.644H102.57C102.96 11.644 103.22 11.514 103.298 11.228C102.258 10.24 100.49 8.784 100.49 8.784L98.93 10.89Z" fill="#32312F"/>
<path id="&#231;&#130;&#186;" d="M26.238 8.264C27.174 9.356 28.11 11.046 28.292 12.58C31.048 14.608 33.648 9.226 26.446 8.108L26.238 8.264ZM27.434 24.8C27.538 26.594 26.42 28.076 25.354 28.622C24.574 29.038 24.028 29.74 24.314 30.65C24.678 31.612 25.848 31.846 26.784 31.3C28.162 30.52 29.228 28.18 27.798 24.774L27.434 24.8ZM30.32 24.826C30.606 26.282 30.632 28.18 30.164 29.87C32.062 32.496 35.624 28.258 30.632 24.748L30.32 24.826ZM33.596 24.644C34.324 25.762 35.026 27.426 35.026 28.882C37.314 30.91 39.966 26.308 33.856 24.514L33.596 24.644ZM37.262 24.228C38.172 24.956 39.16 26.308 39.42 27.478C41.838 28.908 43.606 24.254 37.47 24.046L37.262 24.228ZM38.614 14.504L37.808 18.04H32.504C33.258 16.87 33.908 15.7 34.48 14.504H38.614ZM41.11 18.768L40.408 22.408H29.124C30.216 21.264 31.178 20.016 32.036 18.768H41.11ZM44.906 21.004L43.45 22.408H43.06L43.684 19.106C44.152 19.054 44.36 18.976 44.568 18.742L42.072 16.844L40.98 18.04H40.564L41.318 14.842C41.786 14.79 42.02 14.712 42.228 14.478L39.68 12.554L38.562 13.75H34.844C35.546 12.268 36.118 10.812 36.586 9.408C37.288 9.408 37.522 9.226 37.626 8.914L33.648 7.718C33.206 9.616 32.582 11.67 31.776 13.75H24.496L24.73 14.504H31.464C29.514 19.158 26.602 23.864 22.546 27.166L22.806 27.4C24.938 26.204 26.81 24.748 28.396 23.162H43.658C43.346 26.594 42.748 28.622 42.124 29.116C41.864 29.298 41.656 29.35 41.24 29.35C40.72 29.35 39.29 29.272 38.432 29.168V29.532C39.368 29.74 40.07 30.052 40.434 30.468C40.772 30.858 40.876 31.56 40.876 32.366C42.15 32.366 43.19 32.106 44.022 31.508C45.322 30.572 46.102 28.18 46.492 23.604C47.038 23.552 47.35 23.37 47.558 23.188L44.906 21.004Z" fill="#32312F"/>
<path id="&#239;&#188;&#141;" d="M130.88 19.808H111.12V21.056H130.88V19.808Z" fill="#32312F"/>
<path id="&#239;&#188;&#141;_2" d="M148.88 19.808H129.12V21.056H148.88V19.808Z" fill="#32312F"/>
</g>
</g>
</svg>
