<svg width="78" height="43" viewBox="0 0 78 43" fill="none" xmlns="http://www.w3.org/2000/svg">
<path d="M43.834 6.652V14.608H42.772V6.652H43.834ZM45.472 16.318V4.96H41.134V17.83H42.772V16.318H45.472ZM48.802 7.246C48.82 6.148 48.82 5.014 48.82 3.844H47.002C47.002 5.032 47.002 6.166 46.984 7.246H45.922V9.136H46.966C46.858 13.69 46.408 17.038 44.446 19.27C44.896 19.54 45.544 20.206 45.832 20.656C48.064 18.082 48.622 14.23 48.766 9.136H49.774C49.612 15.454 49.432 17.65 49.09 18.136C48.946 18.406 48.802 18.478 48.568 18.478C48.298 18.478 47.902 18.478 47.416 18.424C47.704 18.964 47.866 19.756 47.902 20.314C48.55 20.332 49.144 20.314 49.558 20.242C50.044 20.134 50.386 19.936 50.71 19.396C51.25 18.622 51.412 15.904 51.61 8.146C51.628 7.894 51.628 7.246 51.628 7.246H48.802ZM53.806 16.588V7.66H55.12V16.588H53.806ZM52.096 5.788V19.864H53.806V18.478H55.12V19.72H56.92V5.788H52.096ZM44.338 34.51H43.06V28.336H44.338V34.51ZM51.718 34.114L51.268 34.258C51.286 33.862 51.286 33.484 51.286 33.088V24.916H49.234V27.544H46.624V29.488H49.234V31.216H46.75V33.124H49.234C49.234 33.7 49.216 34.294 49.144 34.888C48.064 35.212 47.056 35.518 46.246 35.752V26.41H41.152V38.002H43.06V36.454H46.084L46.642 37.786C47.272 37.552 47.974 37.3 48.694 37.03C48.262 38.272 47.47 39.406 46.084 40.234C46.534 40.558 47.308 41.242 47.632 41.638C49.81 40.324 50.728 38.308 51.088 36.094L51.988 35.716L51.718 34.114ZM57.406 34.906H54.364V33.124H56.956V31.216H54.364V29.488H57.226V27.544H54.364V24.88H52.276V41.548H54.364V36.85H57.406V34.906Z" fill="black"/>
<path d="M28.35 15.522H13.65V9.852H28.35V15.522ZM33.432 5.064H8.82V20.268H33.432V5.064ZM14.028 28.542V35.766H7.77V28.542H14.028ZM3.066 42.654H7.77V40.554H14.028V42.444H19.026V23.754H3.066V42.654ZM27.384 35.766V28.542H34.062V35.766H27.384ZM22.596 23.754V42.654H27.384V40.554H34.062V42.486H39.102V23.754H22.596Z" fill="black"/>
<path d="M63.6656 4.09882C61.9361 5.97406 60.9991 8.40702 61.0945 10.7735C61.1742 12.7472 61.9702 14.528 63.336 15.788C66.4493 18.6602 71.6633 18.0902 74.9589 14.5173C76.6882 12.6423 77.6252 10.2094 77.5297 7.84263C77.4501 5.86887 76.6541 4.08814 75.2883 2.82812C72.1747 -0.044096 66.9607 0.525899 63.6656 4.09882ZM73.6558 13.315C71.1905 15.9874 67.4479 16.6169 65.0152 14.8729C65.0654 14.8629 65.1185 14.8528 65.1746 14.8426C65.7066 14.7427 66.4353 14.6063 67.1719 13.8073C67.9091 13.0084 67.9863 12.271 68.043 11.7328C68.0898 11.287 68.1156 11.0414 68.4536 10.675C68.7916 10.3085 69.0343 10.2632 69.4745 10.1807C70.0066 10.0809 70.7353 9.94471 71.4721 9.14578C72.209 8.34655 72.2866 7.60911 72.3432 7.07066C72.39 6.62517 72.4158 6.37956 72.7544 6.01279C73.0926 5.64574 73.3353 5.60017 73.7758 5.51763C74.0998 5.45665 74.4968 5.3803 74.9237 5.15133C75.4243 5.94883 75.7176 6.8934 75.7588 7.91438C75.8351 9.81405 75.0686 11.7829 73.6558 13.315ZM73.6099 3.74341C73.5589 3.75375 73.5058 3.76388 73.4486 3.77447C72.9165 3.8746 72.1875 4.01137 71.4509 4.81C70.7138 5.60924 70.6365 6.34667 70.5799 6.88482C70.5328 7.33062 70.5069 7.57623 70.1687 7.94298C69.8307 8.30943 69.588 8.35471 69.1478 8.43724C68.6157 8.53708 67.887 8.67324 67.1504 9.47216C66.4136 10.2714 66.336 11.0088 66.2794 11.547C66.2326 11.9928 66.207 12.2381 65.8688 12.6048C65.5311 12.9713 65.2884 13.0165 64.8482 13.0991C64.5242 13.1598 64.1275 13.2361 63.7008 13.4648C63.2 12.667 62.9067 11.7224 62.8655 10.7011C62.7888 8.80088 63.5554 6.8326 64.9684 5.29987C67.434 2.6281 71.1772 1.99856 73.6099 3.74341Z" fill="black"/>
</svg>
