<svg width="183" height="75" viewBox="0 0 183 75" fill="none" xmlns="http://www.w3.org/2000/svg">
<g id="coffee &#228;&#184;&#128;&#229;&#174;&#154;(&#230;&#169;&#171;)">
<g id="coffee &#228;&#184;&#128;&#229;&#174;&#154;(&#230;&#169;&#171;)_2">
<path id="?" d="M172.654 63.1C171.432 63.1 170.47 64.062 170.47 65.258C170.47 66.454 171.432 67.416 172.654 67.416C173.876 67.416 174.786 66.454 174.786 65.258C174.786 64.062 173.876 63.1 172.654 63.1ZM176.866 51.374C177.126 51.79 177.256 52.232 177.256 52.7C177.282 53.766 176.762 54.234 175.306 54.832L173.72 55.404C172.082 56.054 171.484 56.626 171.484 57.666C171.484 58.16 171.666 58.732 171.952 59.72L172.29 60.786H173.122L173.148 59.512C173.226 58.706 173.486 58.472 174.682 57.926L175.852 57.484C177.646 56.756 178.634 55.534 178.634 53.506C178.634 49.944 174.422 47.786 171.744 47.188C170.73 47.448 170.21 47.942 170.21 48.93C170.21 49.814 170.73 50.438 172.29 50.672L176.866 51.374Z" fill="#32312F"/>
<path id="&#229;&#146;&#150;" d="M131.708 63.984V49.502H133.476V63.984H131.708ZM115.926 61.02V49.06H117.564V61.02H115.926ZM134.568 47.37L133.268 48.774H131.812L129.134 47.578V51.14L126.742 49.06L125.364 50.516H124.194V46.46C124.87 46.356 125.078 46.096 125.13 45.732L121.724 45.394V50.516H120.06V49.346C120.476 49.268 120.788 49.086 120.918 48.93L118.526 47.032L117.33 48.306H116.056L113.56 47.214V65.778H113.95C115.042 65.778 115.926 65.206 115.926 64.92V61.748H117.564V64.114H117.954C118.838 64.114 120.034 63.594 120.06 63.386V51.244H121.724V54.598C121.724 59.772 121.074 65.024 117.694 68.82L117.98 69.106C123.05 65.778 124.168 60.11 124.194 54.598V51.244H125.624C125.624 60.76 125.572 64.478 124.922 65.18C124.74 65.414 124.532 65.492 124.168 65.492C123.7 65.492 122.738 65.44 122.062 65.388V65.752C122.842 65.96 123.414 66.22 123.7 66.61C124.012 66.974 124.064 67.572 124.064 68.43C125.182 68.43 126.222 68.066 126.924 67.234C128.016 65.934 128.094 62.788 128.12 51.66C128.64 51.556 128.952 51.426 129.134 51.244V68.664H129.576C130.746 68.664 131.708 68.04 131.708 67.702V64.712H133.476V67.676H133.944C134.906 67.676 136.258 67.026 136.284 66.818V49.814C136.674 49.71 136.96 49.554 137.09 49.372L134.568 47.37Z" fill="#32312F"/>
<path id="&#229;&#149;&#161;" d="M144.342 60.798V49.41H146.188V60.798H144.342ZM152.714 51.152H149.386L149.62 51.88H152.714V56.274H149.62L149.828 57.002H152.714V59.316C152.714 59.706 152.714 60.07 152.688 60.46C151.154 60.85 149.776 61.214 148.918 61.396V49.748C149.334 49.67 149.646 49.462 149.776 49.306L147.228 47.304L145.954 48.682H144.446L141.742 47.512V66.232H142.184C143.328 66.232 144.342 65.608 144.342 65.27V61.526H146.188V64.49H146.656C147.566 64.49 148.892 63.866 148.918 63.684V62.462L149.724 64.646C150.01 64.542 150.27 64.256 150.348 63.918C151.18 63.216 151.908 62.566 152.558 61.968C152.09 65.53 150.556 68.052 147.306 70.106L147.54 70.366C153.468 68.26 155.522 64.698 155.574 59.316V47.486C156.224 47.382 156.406 47.122 156.458 46.758L152.714 46.394V51.152ZM161.554 61.916H160.358V57.002H164.076C164.44 57.002 164.7 56.872 164.778 56.586C163.92 55.624 162.438 54.194 162.438 54.194L161.086 56.274H160.358V51.932H164.414C164.778 51.932 165.038 51.802 165.116 51.542C164.232 50.554 162.698 49.072 162.698 49.072L161.32 51.204H160.358V47.538C161.06 47.434 161.268 47.148 161.32 46.784L157.394 46.394V70.314H157.966C159.084 70.314 160.358 69.612 160.358 69.274V62.644H164.83C165.194 62.644 165.48 62.514 165.532 62.228C164.648 61.214 162.984 59.654 162.984 59.654L161.554 61.916Z" fill="#32312F"/>
<path id="&#229;&#150;&#157;" d="M104.514 47.292V50.1H97.39V47.292H104.514ZM97.39 53.402V50.828H104.514V53.402H97.39ZM88.29 60.864V48.124H90.37V60.864H88.29ZM106.906 55.534L105.424 56.99H98.352C98.846 56.496 99.262 56.002 99.652 55.56C100.328 55.638 100.536 55.56 100.666 55.3L97.468 54.156H104.514V55.092H105.008C106.49 55.092 107.426 54.598 107.426 54.468V47.5C107.998 47.396 108.232 47.214 108.414 47.006L105.762 45.004L104.41 46.564H97.676L94.608 45.368V55.43H95.102C95.622 55.43 96.038 55.378 96.402 55.274C95.544 57.12 94.244 59.096 92.996 60.448V48.592C93.542 48.488 93.88 48.28 94.062 48.046L91.41 45.94L90.11 47.396H88.42L85.716 46.226V65.31H86.132C87.302 65.31 88.29 64.686 88.29 64.374V61.618H90.37V63.828H90.786C91.748 63.828 92.97 63.152 92.996 62.918V61.02C93.542 60.734 94.062 60.422 94.608 60.084V64.296C94.608 65.882 94.998 66.376 97.286 66.376H99.704C103.5 66.376 104.488 66.064 104.488 65.05C104.488 64.582 104.254 64.374 103.526 64.088H103.162C102.98 64.14 102.694 64.192 102.486 64.192C102.33 64.218 102.044 64.244 101.836 64.27H99.99H97.91C97.182 64.27 97.104 64.192 97.104 63.88V60.474C97.598 60.396 97.832 60.162 97.884 59.85L95.31 59.616C96.116 59.044 96.896 58.394 97.572 57.744H99.886C99.574 59.668 98.716 62.06 97.312 63.594L97.546 63.906C99.028 63.204 100.198 62.06 101.082 60.838C101.706 61.514 102.33 62.424 102.564 63.23C104.488 64.478 106.204 61.072 101.472 60.266C101.706 59.902 101.914 59.538 102.096 59.174C102.72 59.2 102.928 59.044 103.032 58.758L100.432 57.744H105.632C105.502 63.334 105.268 66.168 104.67 66.688C104.462 66.87 104.254 66.948 103.838 66.948C103.37 66.948 102.018 66.844 101.16 66.792V67.156C102.096 67.364 102.824 67.598 103.214 67.988C103.526 68.378 103.604 68.794 103.604 69.444C104.982 69.444 106.048 69.34 106.828 68.638C107.972 67.598 108.284 65.102 108.44 58.186C108.986 58.108 109.324 57.952 109.506 57.718L106.906 55.534Z" fill="#32312F"/>
<path id="&#232;&#166;&#129;" d="M71.756 60.526C71.392 61.826 70.742 62.996 69.546 64.062C68.272 63.906 66.842 63.776 65.256 63.698C65.958 62.762 66.738 61.618 67.44 60.526H71.756ZM62.656 51.348H64.892V55.742H62.656V51.348ZM67.804 47.474H70.248V50.594H67.804V47.474ZM75.474 51.348V55.742H73.186V51.348H75.474ZM67.804 55.742V51.348H70.248V55.742H67.804ZM76.54 59.772H75.162C75.214 59.434 75.292 59.096 75.344 58.758C75.968 58.68 76.254 58.394 76.306 58.056L72.198 57.692C72.146 58.42 72.068 59.122 71.938 59.772H67.96C68.402 59.096 68.792 58.472 69.078 57.952C69.91 58.03 70.17 57.796 70.274 57.51L67.362 56.47H75.474V57.458H75.994C76.93 57.458 78.464 56.964 78.49 56.782V51.842C79.01 51.712 79.4 51.504 79.556 51.296L76.618 49.086L75.214 50.594H73.186V47.474H80.258C80.622 47.474 80.908 47.344 80.986 47.058C79.79 46.044 77.866 44.588 77.866 44.588L76.176 46.746H57.326L57.534 47.474H64.892V50.594H62.89L59.692 49.346V57.64H60.108C61.33 57.64 62.656 56.99 62.656 56.73V56.47H66.218C65.802 57.302 65.1 58.524 64.346 59.772H56.806L57.014 60.526H63.878C63.072 61.878 62.188 63.178 61.538 63.984C63.774 64.4 65.828 64.868 67.726 65.388C65.646 66.636 62.63 67.78 58.08 68.872L58.21 69.314C64.06 68.508 67.83 67.442 70.326 66.168C73.186 67.104 75.5 68.118 77.138 69.08C79.79 70.224 83.17 66.532 72.666 64.556C73.966 63.386 74.564 62.034 74.98 60.526H80.518C80.908 60.526 81.168 60.396 81.246 60.11C80.076 59.096 78.204 57.718 78.204 57.718L76.54 59.772Z" fill="#32312F"/>
<path id="&#229;&#174;&#154;" d="M38.504 46.108C39.492 46.966 40.22 48.448 40.246 49.774C43.314 52.036 46.304 46.056 38.686 45.952L38.504 46.108ZM42.508 61.032H49.58C49.944 61.032 50.23 60.902 50.282 60.616C49.216 59.654 47.422 58.25 47.422 58.25L45.836 60.304H42.508V55.416H49.658C50.022 55.416 50.282 55.286 50.36 55C49.944 54.662 49.45 54.272 48.982 53.908C50.1 53.31 51.426 52.426 52.206 51.672C52.726 51.646 52.986 51.594 53.22 51.36L50.386 48.682L48.774 50.32H32.862C32.784 49.826 32.602 49.306 32.394 48.76H32.082C32.134 50.008 31.016 51.152 30.106 51.62C29.222 52.036 28.572 52.816 28.858 53.908C29.222 55.052 30.678 55.39 31.562 54.844C32.524 54.272 33.2 52.92 32.992 51.048H48.956C48.852 51.828 48.644 52.79 48.462 53.518C47.864 53.076 47.422 52.764 47.422 52.764L45.81 54.688H32.212L32.42 55.416H39.44V66.024C37.75 65.478 36.45 64.542 35.488 63.034C36.008 61.812 36.32 60.538 36.58 59.316C37.204 59.29 37.49 59.056 37.568 58.666L33.538 57.964C33.278 61.916 32.082 66.804 28.676 70.054L28.91 70.288C31.978 68.65 33.928 66.336 35.124 63.84C37.048 68.598 40.376 69.716 46.408 69.716H51.66C51.686 68.442 52.206 67.298 53.246 67.064V66.752C51.582 66.778 48.046 66.778 46.564 66.778C45.056 66.778 43.704 66.726 42.508 66.622V61.032Z" fill="#32312F"/>
<path id="&#228;&#184;&#128;" d="M0.936 57.028L1.17 57.86H24.466C24.908 57.86 25.194 57.73 25.272 57.444C23.842 56.092 21.45 54.012 21.45 54.012L19.292 57.028H0.936Z" fill="#32312F"/>
<path id="&#233;&#186;&#188;" d="M86.788 21.862H87.1C87.958 21.862 88.738 21.472 88.764 21.342V15.102H91.884C92.092 15.102 92.274 15.05 92.352 14.946L92.404 15.102H95.836V16.194L93.34 15.986C93.34 17.676 93.366 19.444 92.508 20.926L92.872 21.29C94.874 20.042 95.134 18.196 95.264 16.844C95.524 16.818 95.706 16.714 95.836 16.61V21.836H96.148C97.032 21.836 97.786 21.446 97.812 21.316V15.102H101.998C102.336 15.102 102.596 14.972 102.674 14.686C101.764 13.802 100.256 12.554 100.256 12.554L98.93 14.374H98.098V12.762C98.696 12.658 98.878 12.476 98.93 12.112L95.576 11.8V14.374H92.222C91.442 13.646 90.428 12.84 90.428 12.84L89.258 14.374H89.024V12.788C89.648 12.684 89.83 12.502 89.882 12.138L86.502 11.8V14.374H83.642L83.85 15.102H86.788V16.22L84.24 16.012C84.24 17.676 84.266 19.47 83.408 20.952L83.772 21.29C85.748 20.042 86.008 18.222 86.138 16.844C86.45 16.818 86.684 16.688 86.788 16.506V21.862ZM89.388 15.96V19.028C89.388 19.99 89.518 20.406 90.558 20.406H90.896C92.066 20.406 92.612 20.12 92.612 19.47C92.612 19.08 92.43 18.976 91.962 18.794H91.624C91.546 18.82 91.364 18.846 91.286 18.846C91.234 18.846 91.104 18.872 91.052 18.846H91.104H91.156C91.13 18.846 91.078 18.768 91.078 18.56V16.818C91.442 16.766 91.702 16.532 91.728 16.22L89.388 15.96ZM96.616 26.204C97.214 26.958 97.864 27.868 98.436 28.83C94.276 29.012 90.402 29.168 87.62 29.22C91.65 27.998 96.044 26.1 98.384 24.67C99.008 24.852 99.398 24.67 99.554 24.436L96.304 22.356C95.68 22.954 94.718 23.734 93.574 24.566C91.572 24.618 89.648 24.67 88.088 24.696C89.986 24.046 91.936 23.162 93.158 22.408C93.756 22.512 94.068 22.356 94.198 22.096L90.87 20.432C89.986 21.602 87.516 23.838 85.618 24.488C85.358 24.592 84.916 24.67 84.916 24.67L85.8 27.4C85.982 27.348 86.164 27.218 86.346 27.036C88.374 26.594 90.272 26.126 91.858 25.71C89.7 27.062 87.23 28.362 85.176 28.96C84.812 29.09 84.136 29.168 84.136 29.168L85.072 32.184C85.28 32.132 85.488 31.976 85.696 31.768C91.052 30.962 95.576 30.156 98.774 29.532C99.164 30.312 99.502 31.118 99.658 31.872C102.518 33.9 104.806 28.232 96.85 26.048L96.616 26.204ZM101.946 19.262H101.712C101.608 19.288 101.426 19.34 101.322 19.34H101.036H100.75H100.438C100.256 19.34 100.204 19.262 100.204 19.028V16.818C100.594 16.766 100.854 16.558 100.906 16.246L98.514 15.96V19.47C98.514 20.484 98.696 20.9 99.892 20.9H100.542C102.128 20.9 102.7 20.588 102.7 19.912C102.7 19.574 102.518 19.444 102.05 19.288L101.946 19.262ZM98.93 10.89H92.534C94.042 10.37 94.276 7.718 89.83 7.848L89.622 8.004C90.22 8.576 90.922 9.694 91.078 10.682C91.234 10.786 91.39 10.838 91.546 10.89H83.876L80.704 9.72V17.962C80.704 22.668 80.6 27.972 78.494 32.08L78.832 32.314C83.252 28.336 83.46 22.434 83.46 17.936V11.644H102.57C102.96 11.644 103.22 11.514 103.298 11.228C102.258 10.24 100.49 8.784 100.49 8.784L98.93 10.89Z" fill="#32312F"/>
<path id="&#228;&#187;&#128;" d="M56.24 7.874C55.096 13.022 52.834 18.222 50.572 21.446L50.858 21.654C52.08 20.77 53.198 19.756 54.264 18.586V32.288H54.836C56.058 32.288 57.306 31.638 57.358 31.404V16.168C57.852 16.064 58.06 15.908 58.164 15.674L56.838 15.18C57.852 13.568 58.788 11.774 59.568 9.798C60.166 9.824 60.504 9.59 60.608 9.252L56.24 7.874ZM70.592 17.286H68.2V9.486C68.902 9.382 69.084 9.122 69.136 8.732L64.976 8.342V17.286H58.736L58.944 18.04H64.976V32.08H65.6C66.796 32.08 68.2 31.3 68.2 30.988V18.04H74.726C75.09 18.04 75.376 17.91 75.454 17.624C74.284 16.532 72.334 14.946 72.334 14.946L70.592 17.286Z" fill="#32312F"/>
<path id="&#231;&#130;&#186;" d="M26.238 8.264C27.174 9.356 28.11 11.046 28.292 12.58C31.048 14.608 33.648 9.226 26.446 8.108L26.238 8.264ZM27.434 24.8C27.538 26.594 26.42 28.076 25.354 28.622C24.574 29.038 24.028 29.74 24.314 30.65C24.678 31.612 25.848 31.846 26.784 31.3C28.162 30.52 29.228 28.18 27.798 24.774L27.434 24.8ZM30.32 24.826C30.606 26.282 30.632 28.18 30.164 29.87C32.062 32.496 35.624 28.258 30.632 24.748L30.32 24.826ZM33.596 24.644C34.324 25.762 35.026 27.426 35.026 28.882C37.314 30.91 39.966 26.308 33.856 24.514L33.596 24.644ZM37.262 24.228C38.172 24.956 39.16 26.308 39.42 27.478C41.838 28.908 43.606 24.254 37.47 24.046L37.262 24.228ZM38.614 14.504L37.808 18.04H32.504C33.258 16.87 33.908 15.7 34.48 14.504H38.614ZM41.11 18.768L40.408 22.408H29.124C30.216 21.264 31.178 20.016 32.036 18.768H41.11ZM44.906 21.004L43.45 22.408H43.06L43.684 19.106C44.152 19.054 44.36 18.976 44.568 18.742L42.072 16.844L40.98 18.04H40.564L41.318 14.842C41.786 14.79 42.02 14.712 42.228 14.478L39.68 12.554L38.562 13.75H34.844C35.546 12.268 36.118 10.812 36.586 9.408C37.288 9.408 37.522 9.226 37.626 8.914L33.648 7.718C33.206 9.616 32.582 11.67 31.776 13.75H24.496L24.73 14.504H31.464C29.514 19.158 26.602 23.864 22.546 27.166L22.806 27.4C24.938 26.204 26.81 24.748 28.396 23.162H43.658C43.346 26.594 42.748 28.622 42.124 29.116C41.864 29.298 41.656 29.35 41.24 29.35C40.72 29.35 39.29 29.272 38.432 29.168V29.532C39.368 29.74 40.07 30.052 40.434 30.468C40.772 30.858 40.876 31.56 40.876 32.366C42.15 32.366 43.19 32.106 44.022 31.508C45.322 30.572 46.102 28.18 46.492 23.604C47.038 23.552 47.35 23.37 47.558 23.188L44.906 21.004Z" fill="#32312F"/>
<path id="&#239;&#188;&#141;" d="M130.88 19.808H111.12V21.056H130.88V19.808Z" fill="#32312F"/>
<path id="&#239;&#188;&#141;_2" d="M148.88 19.808H129.12V21.056H148.88V19.808Z" fill="#32312F"/>
</g>
</g>
</svg>
